<svg width="70" height="70" viewBox="0 0 70 70" fill="none" xmlns="http://www.w3.org/2000/svg">
<line x1="1.5" y1="70" x2="1.5" y2="15" stroke="black" stroke-width="3"/>
<path d="M15 1.5C21.6325 1.5 27.1478 6.28291 28.2851 12.5878C26.2202 11.7201 24.4603 11.1485 22.9616 10.842C20.9404 10.4286 19.2302 10.4635 17.8675 11.0794C16.4315 11.7284 15.6301 12.9059 15.2358 14.2107C14.8577 15.4617 14.8313 16.8853 14.9224 18.2469C15.0127 19.5961 15.2307 21.0234 15.432 22.3419L15.4439 22.4194C15.6537 23.7935 15.8402 25.034 15.8954 26.1011C15.9528 27.2132 15.8466 27.8701 15.678 28.2056C15.6123 28.3362 15.5551 28.3814 15.5114 28.4068C15.4591 28.4372 15.3174 28.5 15 28.5C7.54416 28.5 1.5 22.4558 1.5 15C1.5 7.54416 7.54416 1.5 15 1.5Z" stroke="black" stroke-width="3"/>
<line x1="70" y1="1.5" x2="15" y2="1.5" stroke="black" stroke-width="3"/>
<rect width="6" height="17" transform="translate(3 15)" fill="white"/>
<rect width="20" height="27" transform="translate(15 3)" fill="white"/>
<rect width="16" height="24" transform="translate(9 11)" fill="white"/>
</svg>
